<svg xmlns="http://www.w3.org/2000/svg" viewBox="0 0 333 278.82"><defs><style>.cls-1{fill:#fff;}.cls-2{fill:#fc0;}.cls-3{fill:#231f20;}</style></defs><g id="Layer_2" data-name="Layer 2"><g id="Layer_1-2" data-name="Layer 1"><rect class="cls-1" width="333" height="278.82"/><rect class="cls-2" x="36.11" y="180.35" width="260.18" height="57.43"/><path class="cls-3" d="M286.94,208.1v3.1c0,10.73-4.47,16-12.66,16-5.4,0-8.87-2.73-10.48-6.08-.19-.13-1.74.62-1.74,1.73a5.52,5.52,0,0,0,1.8,3.42c2,2,5.58,3.53,10.42,3.53,10,0,15.7-6.39,15.7-18.73v-4.54c0-11.72-6.14-18.11-15.32-18.11-8.07,0-13.9,6-13.9,13.52v.38c0,7.19,5.33,12,13.52,12a15.44,15.44,0,0,0,12.66-6.14m-12.41,3.54c-6.76,0-10.79-3.6-10.79-9.62v-.37c0-6,4.59-10.68,11-10.68,7,0,11.54,5,12.1,14-2.05,3.65-6.83,6.7-12.35,6.7m-25.44,17.68h.44c.87,0,1.36-.44,1.36-1.43v-37.6c0-1-.49-1.49-1.42-1.49h-1.31a5.14,5.14,0,0,1-5.15,4.91,4.2,4.2,0,0,1-3.54-1.56,1.82,1.82,0,0,0-1,1.68,2.36,2.36,0,0,0,.75,1.74,4.81,4.81,0,0,0,3.54,1.24,5.74,5.74,0,0,0,5-2.67v33.75c0,1,.44,1.43,1.3,1.43m-28.41-14.21h13.71c.93,0,1.42-.37,1.42-1.18v-.31c0-.87-.49-1.24-1.42-1.24H220.68c-.94,0-1.43.37-1.43,1.24v.31c0,.81.49,1.18,1.43,1.18M183.51,226.4V191.72h8.25c11.79,0,18.68,6.58,18.68,17.31,0,10.92-6.83,17.37-18.8,17.37Zm-1.24,2.73h9.18c13.9,0,22.21-7.63,22.21-20.16s-8.12-20-21.9-20h-9.49a1.78,1.78,0,0,0-1.8,1.86v36.42a1.78,1.78,0,0,0,1.8,1.86m-14,.19h.44c.86,0,1.3-.44,1.3-1.43V190.23c0-.93-.44-1.43-1.3-1.43h-.44c-.87,0-1.3.5-1.3,1.43v37.66c0,1,.43,1.43,1.3,1.43m-25.19.06c1.3,0,1.74-.37,2-1.12l15.32-38.53c.19-.49-2.54-2.11-3.53.56l-13.84,35.62-13.78-35.62c-1-2.67-3.78-1-3.66-.56L141,228.26c.31.75.74,1.12,2.11,1.12M103,227.09c-9.87,0-16.63-7.64-16.63-18S93.11,191,103,191s16.62,7.75,16.62,18.05-6.7,18-16.56,18m-.13,2.66c11.85,0,19.86-8.68,19.86-20.72s-7.94-20.66-19.73-20.66-19.86,8.75-19.86,20.78,7.95,20.6,19.73,20.6m-40.64,0c6.08,0,10.61-2.29,13-4.71A8.33,8.33,0,0,0,78,220.26a1.94,1.94,0,0,0-2-1.8c-1.49,4.47-6.15,8.63-13.53,8.63-10,0-16.75-7.64-16.75-18S52.41,191,62.21,191c6.14,0,11.17,3.22,13.28,7.69a1.83,1.83,0,0,0,1.8-1.86,6.7,6.7,0,0,0-2.11-3.79c-2.36-2.35-6.58-4.71-12.84-4.71-11.79,0-19.92,8.69-19.92,20.78s7.94,20.6,19.85,20.6"/><path class="cls-3" d="M269.71,125.27v20.56c0,8.42,3.64,12.87,11.65,12.87,5.74,0,9.06-2.92,9.06-5.91,0-2.51-2-3.64-2.26-3.4a6.6,6.6,0,0,1-5.5,2.75c-3.81,0-5.18-2.35-5.18-7.2V125.27h8.82c2.5,0,3.48-1,3.48-3.07v-.57c0-1.94-.89-2.91-3.4-2.91h-8.82v-6c0-3-1.38-3.81-3.48-3.81h-.81c-2.19,0-3.56,1.06-3.56,3.81v6h-2.84c-2.51,0-3.48,1-3.48,3v.57c0,1.94,1,3,3.48,3Zm-26.87,33.35c10,0,16.18-4.78,16.18-12.22,0-8.42-8.33-10.2-14.32-11.5-6.31-1.37-9.71-2.18-9.71-5.74,0-3.24,2.91-5.34,8.41-5.34a14,14,0,0,1,11.41,5.5c.17.24,3.24-1.22,3.24-3.72,0-3.65-5-7.85-15-7.85-9.47,0-15.54,4.93-15.54,12.22,0,8.25,7.93,10,13.68,11.24,6.39,1.38,10,2.11,10,6.07,0,3.24-3.07,5.27-8.58,5.27-6.14,0-10.51-2.51-13.11-5.83a4.09,4.09,0,0,0-3.15,3.64c0,3.72,5.58,8.26,16.43,8.26m-51.07-34c-.24-5.1-2.67-6.32-5-6.32-1.62,0-2.91.65-2.91.89v35c0,2.92,1.46,3.81,3.56,3.81h.89c2,0,3.56-.89,3.56-3.81V131.59a11.77,11.77,0,0,1,10.93-6.8c5.66,0,9,4,9,10.6v18.77c0,2.92,1.46,3.81,3.56,3.81h.89c2,0,3.56-.89,3.56-3.81V134.42c0-9.63-4.77-16.67-15.05-16.67a15,15,0,0,0-12.95,6.88M171.46,158h.81c2.1,0,3.56-.89,3.56-3.81v-32c0-3-1.46-3.89-3.56-3.89h-.81c-2.1,0-3.64,1-3.64,3.89v32c0,2.92,1.54,3.81,3.64,3.81m.41-47.59c3.07,0,4.77-1.54,4.77-4.45s-1.7-4.53-4.7-4.53-4.85,1.62-4.85,4.53,1.78,4.45,4.78,4.45M151.8,134.26h-1.05c-17.57.32-26.15,4.2-26.15,13.19,0,6.63,4.94,11.08,13.28,11.08,6,0,11.08-2.58,14-6.79.08,4.77,2.1,6.31,4.93,6.31,1.46,0,2.92-.49,2.92-.89V133.29c0-9.88-6-15.54-17-15.54s-16.67,5.58-16.67,9.3c0,3.89,4.94,4,4.94,3.89,1.78-3.56,5.26-6.64,11.17-6.64,6.23,0,9.63,3.24,9.63,9.15Zm-12,18.53c-4.61,0-7.37-2.19-7.37-5.67,0-5.26,5.83-7.36,17.16-7.77l2.19-.08v3c0,6.15-5,10.52-12,10.52M111,120.09a19.43,19.43,0,0,0-9.31-2.34c-9.63,0-16.67,6.55-16.67,14.72,0,6.07,4,10.93,10.2,12.95A5.58,5.58,0,0,0,93,149.63a4.59,4.59,0,0,0,1.62,3.65c-7.12,1.21-12.46,5-12.46,10.68,0,7.28,6.07,10.76,19.18,10.76,12.87,0,20.39-4.53,20.39-11.9,0-6.39-5.83-9.14-11.33-10.6-6.8-1.7-10.52-1.94-10.52-4.45a2.53,2.53,0,0,1,.4-1.46,8,8,0,0,0,1.46.09c9.87,0,16.84-6,16.84-14.17a13.21,13.21,0,0,0-3.32-8.74l6.55-6.8c.25-.16-1.13-3.4-4.13-3.4-2,0-3.31,1-4.61,3.08Zm-9.23,21c-5.34,0-9.14-3.57-9.14-8.83s3.72-8.82,9-8.82c5.5,0,9.23,3.64,9.23,8.82s-3.73,8.83-9.07,8.83m.24,15.7c5.75,1.45,12,2.26,12,6.23s-4.61,6.07-12.46,6.07c-7.69,0-11.66-1.95-11.66-5.42,0-4.13,5.59-6.48,12.14-6.88M69.89,134.26h-1c-17.56.32-26.14,4.2-26.14,13.19,0,6.63,4.94,11.08,13.28,11.08,6,0,11.08-2.58,14-6.79.08,4.77,2.1,6.31,4.93,6.31,1.46,0,2.92-.49,2.92-.89V133.29c0-9.88-6-15.54-17-15.54s-16.67,5.58-16.67,9.3c0,3.89,4.94,4,4.94,3.89a11.76,11.76,0,0,1,11.16-6.64c6.24,0,9.63,3.24,9.63,9.15Zm-12,18.53c-4.61,0-7.37-2.19-7.37-5.67,0-5.26,5.83-7.36,17.16-7.77l2.18-.08v3c0,6.15-5,10.52-12,10.52"/><path class="cls-3" d="M258.86,75.58h28.65c1.86,0,2.43-.65,2.43-2.35v-.64c0-11.66-7.45-19.59-18.7-19.59-11.49,0-19.91,8.82-19.91,20.64,0,12.14,8.26,20.31,20.56,20.31,10.6,0,16.59-5.42,16.59-8.82s-4.05-4.13-4.21-4c-2,3.47-5.42,6.47-12.22,6.47-7.36,0-12.62-4.94-13.19-12.06m0-5.42c1-6.47,5.91-11.09,12.3-11.09s10.6,4.37,11,11.09Zm-31.72-9.63V81.09c0,8.41,3.64,12.86,11.65,12.86,5.75,0,9.07-2.91,9.07-5.91,0-2.5-2-3.64-2.27-3.4a6.57,6.57,0,0,1-5.5,2.76c-3.81,0-5.18-2.35-5.18-7.2V60.53h8.82c2.51,0,3.48-1.05,3.48-3.08v-.56c0-2-.89-2.92-3.4-2.92H235V48c0-3-1.38-3.8-3.48-3.8h-.81c-2.19,0-3.56,1-3.56,3.8v6H224.3c-2.5,0-3.48,1.06-3.48,3v.56c0,1.95,1,3,3.48,3ZM209.57,93.22h.81c2.11,0,3.56-.88,3.56-3.8v-32c0-3-1.45-3.88-3.56-3.88h-.81c-2.1,0-3.64,1-3.64,3.88v32c0,2.92,1.54,3.8,3.64,3.8M210,45.64c3.08,0,4.78-1.54,4.78-4.45s-1.7-4.53-4.7-4.53-4.86,1.61-4.86,4.53S207,45.64,210,45.64M168.14,59.88c-.24-5.1-2.67-6.31-5-6.31-1.62,0-2.91.65-2.91.89v35c0,2.92,1.46,3.8,3.56,3.8h.89c2,0,3.56-.88,3.56-3.8V66.84A11.76,11.76,0,0,1,179.15,60c5.66,0,9,4.05,9,10.61V89.42c0,2.92,1.46,3.8,3.56,3.8h.89c2,0,3.56-.88,3.56-3.8V69.67c0-9.63-4.77-16.67-15-16.67a15,15,0,0,0-13,6.88m-39.25,34c13.92,0,21.44-7.85,21.44-22.42V44c0-2.59-1.13-3.8-3.47-3.8h-1.3c-2.34,0-3.56,1.21-3.56,3.8V71.29c0,10.2-4.21,15.22-13,15.22-8.66,0-13-5.18-13-15.14V44c0-2.51-1.21-3.8-3.64-3.8h-1.13c-2.27,0-3.57,1.29-3.57,3.8v27.6c0,14.56,7.37,22.25,21.29,22.25"/></g></g></svg>