<svg id="Layer_1" data-name="Layer 1" xmlns="http://www.w3.org/2000/svg" viewBox="0 0 1190.55 841.89" width='3000' height="2000"><defs><style>.cls-1{fill:#fc0;}</style></defs><rect class="cls-1" x="-1069.43" y="388.35" width="1308.87" height="65.2" transform="translate(-419.2 -170.15) rotate(-45)"/><rect class="cls-1" x="-885.74" y="388.35" width="1308.87" height="65.2" transform="translate(-365.4 -40.27) rotate(-45)"/><rect class="cls-1" x="-702.06" y="388.35" width="1308.87" height="65.2" transform="translate(-311.6 89.62) rotate(-45)"/><rect class="cls-1" x="-518.37" y="388.35" width="1308.87" height="65.2" transform="translate(-257.8 219.5) rotate(-45)"/><rect class="cls-1" x="-334.69" y="388.35" width="1308.87" height="65.2" transform="translate(-204 349.39) rotate(-45)"/><rect class="cls-1" x="-151" y="388.35" width="1308.87" height="65.2" transform="translate(-150.2 479.27) rotate(-45)"/><rect class="cls-1" x="32.68" y="388.35" width="1308.87" height="65.2" transform="translate(-96.4 609.16) rotate(-45)"/><rect class="cls-1" x="216.37" y="388.35" width="1308.87" height="65.2" transform="translate(-42.6 739.04) rotate(-45)"/><rect class="cls-1" x="400.05" y="388.35" width="1308.87" height="65.2" transform="translate(11.2 868.93) rotate(-45)"/><rect class="cls-1" x="583.74" y="388.35" width="1308.87" height="65.2" transform="translate(65 998.81) rotate(-45)"/><rect class="cls-1" x="767.42" y="388.35" width="1308.87" height="65.2" transform="translate(118.8 1128.7) rotate(-45)"/><rect class="cls-1" x="951.11" y="388.35" width="1308.87" height="65.2" transform="translate(172.6 1258.58) rotate(-45)"/></svg>
